<?xml version="1.0" encoding="UTF-8"?>
<!-- Generator: Adobe Illustrator 16.0.0, SVG Export Plug-In . SVG Version: 6.00 Build 0)  -->
<!DOCTYPE svg PUBLIC "-//W3C//DTD SVG 1.1//EN" "http://www.w3.org/Graphics/SVG/1.1/DTD/svg11.dtd">
<svg version="1.1" id="Layer_1" xmlns="http://www.w3.org/2000/svg" xmlns:xlink="http://www.w3.org/1999/xlink" x="0px" y="0px" width="396.926px" height="396.922px" viewBox="0 0 396.926 396.922" enable-background="new 0 0 396.926 396.922" xml:space="preserve">
<g>
    <path fill="#E04F5F" d="M0,198.465C0,88.848,88.855,0,198.461,0C308.07,0,396.926,88.848,396.926,198.465         c0,109.602-88.855,198.457-198.465,198.457C88.855,396.922,0,308.066,0,198.465L0,198.465z M0,198.465"/>
    <path fill="#FFFFFF" d="M299.293,124.114c-27.84-27.84-72.981-27.84-100.816,0h-0.024c-27.844-27.84-72.98-27.84-100.82,0         c-27.84,27.84-23.824,69.472,0,100.816c25.234,33.195,71.305,87.957,100.82,87.957h0.024c29.515,0,75.582-54.762,100.816-87.957         C323.121,193.59,327.133,151.954,299.293,124.114L299.293,124.114z M299.293,124.114"/>
</g>
</svg>